<svg width="20" height="5" viewBox="0 0 20 5" fill="none" xmlns="http://www.w3.org/2000/svg">
<path fill-rule="evenodd" clip-rule="evenodd" d="M4.61538 2.30769C4.61538 3.5822 3.5822 4.61538 2.30769 4.61538C1.03319 4.61538 0 3.5822 0 2.30769C0 1.03319 1.03319 0 2.30769 0C3.5822 0 4.61538 1.03319 4.61538 2.30769ZM12.3077 2.30769C12.3077 3.5822 11.2745 4.61538 10 4.61538C8.7255 4.61538 7.69231 3.5822 7.69231 2.30769C7.69231 1.03319 8.7255 0 10 0C11.2745 0 12.3077 1.03319 12.3077 2.30769ZM17.6923 4.61538C18.9668 4.61538 20 3.5822 20 2.30769C20 1.03319 18.9668 0 17.6923 0C16.4178 0 15.3846 1.03319 15.3846 2.30769C15.3846 3.5822 16.4178 4.61538 17.6923 4.61538Z" fill="#8397AB"/>
</svg>
