<svg width="16" height="16" viewBox="0 0 16 16" fill="none" xmlns="http://www.w3.org/2000/svg">
<path fill-rule="evenodd" clip-rule="evenodd" d="M16 1.86667L15.2889 2.57778C14.2222 1.6 12.8889 1.06667 11.5556 1.06667C10.2222 1.06667 8.88889 1.6 7.82222 2.57778L7.11111 1.86667C8.35556 0.622222 9.95556 0 11.5556 0C13.1556 0 14.7556 0.622222 16 1.86667ZM11.5556 2.04444C12.6222 2.04444 13.6889 2.48889 14.4889 3.28889L13.7778 4C13.1556 3.37778 12.3556 3.11111 11.5556 3.11111C10.7556 3.11111 9.95555 3.37778 9.33333 4L8.62222 3.28889C9.42222 2.48889 10.4889 2.04444 11.5556 2.04444ZM14.2222 8.88889H12.4444V5.33333H10.6667V8.88889H1.77778C0.8 8.88889 0 9.68889 0 10.6667V14.2222C0 15.2 0.8 16 1.77778 16H14.2222C15.2 16 16 15.2 16 14.2222V10.6667C16 9.68889 15.2 8.88889 14.2222 8.88889ZM2.66667 13.3333H4.44444V11.5556H2.66667V13.3333ZM7.55556 13.3333H5.77778V11.5556H7.55556V13.3333ZM8.88889 13.3333H10.6667V11.5556H8.88889V13.3333Z" fill="#8397AB"/>
</svg>
