<svg width="18" height="20" viewBox="0 0 18 20" fill="none" xmlns="http://www.w3.org/2000/svg">
<path fill-rule="evenodd" clip-rule="evenodd" d="M16.7348 16.9369C16.7274 16.9371 16.7202 16.9376 16.7129 16.9382C16.7041 16.9388 16.6954 16.9395 16.6864 16.9395H13.2048C12.102 16.9395 11.2048 16.0421 11.2048 14.9395V14.0395C11.2048 12.9367 12.102 12.0395 13.2048 12.0395H16.6864C16.6955 12.0395 16.7043 12.0401 16.7132 12.0407C16.7203 12.0412 16.7275 12.0417 16.7348 12.0419C16.7411 12.0416 16.7475 12.0412 16.7538 12.0408L16.7539 12.0408C16.7636 12.0401 16.7733 12.0395 16.7832 12.0395H17.0864V9.10048H2.3766L2.3742 9.10028H1.7766C1.6668 9.10028 1.5766 9.01028 1.5766 8.90028L1.5762 8.53948C1.5762 8.53645 1.57702 8.53372 1.57783 8.531L1.57783 8.531C1.57852 8.52868 1.57922 8.52636 1.5794 8.52388C1.57922 8.52039 1.57857 8.51694 1.57792 8.5135C1.57716 8.50944 1.5764 8.50539 1.5764 8.50128C1.5762 8.17168 1.936 7.90188 2.3762 7.90188H6.1122C6.158 7.57548 6.2238 7.21648 6.3162 6.83948H2C0.9 6.83948 0 7.73948 0 8.83948V17.8633C0 18.9633 0.9 19.8633 2 19.8633H16.6864C16.9062 19.8633 17.0864 19.6831 17.0864 19.4633V16.9395H16.7832C16.7735 16.9395 16.7639 16.9388 16.7544 16.9381C16.7479 16.9376 16.7413 16.9371 16.7348 16.9369ZM10.7644 7.90188C11.1566 7.67428 11.586 7.48248 12.0484 7.36508V7.90188H10.7644ZM13.0368 14.4895C13.0368 14.8203 13.306 15.0895 13.6368 15.0895C13.9684 15.0895 14.2368 14.8203 14.2368 14.4895C14.2368 14.1585 13.9684 13.8895 13.6368 13.8895C13.306 13.8895 13.0368 14.1585 13.0368 14.4895ZM16.7832 12.8395H17.0864C17.5262 12.8395 17.8864 13.1995 17.8864 13.6395V15.3395C17.8864 15.7795 17.5262 16.1395 17.0864 16.1395H16.7832C16.7772 16.1395 16.7715 16.1386 16.7658 16.1378C16.7608 16.137 16.7559 16.1363 16.7508 16.1361L16.7307 16.1374C16.7161 16.1384 16.7015 16.1395 16.6868 16.1395H13.2048C12.545 16.1395 12.0048 15.5995 12.0048 14.9395V14.0395C12.0048 13.3795 12.545 12.8395 13.2048 12.8395H16.6868C16.702 12.8395 16.7172 12.8405 16.7324 12.8415L16.7508 12.8427C16.7559 12.8425 16.7608 12.8418 16.7657 12.8411C16.7714 12.8403 16.7772 12.8395 16.7832 12.8395ZM16.3894 6.83948H16.6864C16.9062 6.83948 17.0864 7.01948 17.0864 7.23948V7.90188H15.4262L16.3894 6.83948Z" fill="#B5C1CD"/>
<path fill-rule="evenodd" clip-rule="evenodd" d="M13.0532 6.0365C13.1208 6.0365 13.1852 6.0351 13.2484 6.0333V8.1171C13.2484 8.3371 13.3692 8.3837 13.5172 8.2209L16.9746 4.4073C17.1224 4.2445 17.1208 3.9791 16.9716 3.8177L13.5204 0.0955042C13.3708 -0.0658958 13.2484 -0.0176958 13.2484 0.202104V2.5859C13.1848 2.5835 13.1208 2.5817 13.0532 2.5817C8.36441 2.5817 7.42901 6.5947 7.24841 8.5029H8.14741C9.09981 7.4741 10.8278 6.0365 13.0532 6.0365" fill="#8397AB"/>
</svg>
